<mxfile host="" modified="2021-02-11T21:17:06.033Z" agent="5.0 (Windows NT 6.2; Win64; x64) AppleWebKit/537.36 (KHTML, like Gecko) Chrome/84.0.4147.105 Safari/537.36" version="13.7.9" etag="bUnZCqwHDp56q7gLlb3L" type="embed"><diagram id="sP_DRqJuOAe_0EdEXzgQ" name="Page-1"><mxGraphModel dx="802" dy="614" grid="1" gridSize="10" guides="1" tooltips="1" connect="1" arrows="1" fold="1" page="1" pageScale="1" pageWidth="850" pageHeight="1100" math="0" shadow="0"><root><mxCell id="0"/><mxCell id="1" parent="0"/><mxCell id="32" value="" style="endArrow=diamondThin;endFill=1;endSize=24;html=1;entryX=1;entryY=0.75;entryDx=0;entryDy=0;exitX=-0.001;exitY=0.37;exitDx=0;exitDy=0;exitPerimeter=0;" edge="1" parent="1" source="37" target="36"><mxGeometry width="160" relative="1" as="geometry"><mxPoint x="550" y="105.55813953488371" as="sourcePoint"/><mxPoint x="280" y="107.44186046511629" as="targetPoint"/></mxGeometry></mxCell><mxCell id="33" value="1" style="edgeLabel;html=1;align=center;verticalAlign=middle;resizable=0;points=[];" vertex="1" connectable="0" parent="32"><mxGeometry x="-0.8712" y="1" relative="1" as="geometry"><mxPoint y="-12" as="offset"/></mxGeometry></mxCell><mxCell id="35" value="0...*" style="edgeLabel;html=1;align=center;verticalAlign=middle;resizable=0;points=[];" vertex="1" connectable="0" parent="32"><mxGeometry x="0.7214" y="1" relative="1" as="geometry"><mxPoint y="-12" as="offset"/></mxGeometry></mxCell><mxCell id="49" value="has a" style="edgeLabel;html=1;align=center;verticalAlign=middle;resizable=0;points=[];" vertex="1" connectable="0" parent="32"><mxGeometry x="-0.8812" y="-3" relative="1" as="geometry"><mxPoint x="-168.68" y="-12.62" as="offset"/></mxGeometry></mxCell><mxCell id="36" value="&lt;p style=&quot;margin: 0px ; margin-top: 4px ; text-align: center&quot;&gt;&lt;b&gt;Book&lt;/b&gt;&lt;/p&gt;&lt;hr size=&quot;1&quot;&gt;&lt;p style=&quot;margin: 0px ; margin-left: 4px&quot;&gt;- authorID: int&lt;/p&gt;&lt;p style=&quot;margin: 0px ; margin-left: 4px&quot;&gt;- title: String&lt;/p&gt;&lt;p style=&quot;margin: 0px ; margin-left: 4px&quot;&gt;- isbn: String&lt;/p&gt;&lt;p style=&quot;margin: 0px ; margin-left: 4px&quot;&gt;- publisher: String&lt;/p&gt;&lt;p style=&quot;margin: 0px ; margin-left: 4px&quot;&gt;- year: int&lt;/p&gt;&lt;hr size=&quot;1&quot;&gt;&lt;p style=&quot;margin: 0px ; margin-left: 4px&quot;&gt;+ method(): Type&lt;/p&gt;" style="verticalAlign=top;align=left;overflow=fill;fontSize=12;fontFamily=Helvetica;html=1;" vertex="1" parent="1"><mxGeometry x="40" y="50" width="160" height="170" as="geometry"/></mxCell><mxCell id="37" value="&lt;p style=&quot;margin: 0px ; margin-top: 4px ; text-align: center&quot;&gt;&lt;b&gt;Author&lt;/b&gt;&lt;/p&gt;&lt;hr size=&quot;1&quot;&gt;&lt;p style=&quot;margin: 0px ; margin-left: 4px&quot;&gt;- authorID: int&lt;/p&gt;&lt;p style=&quot;margin: 0px ; margin-left: 4px&quot;&gt;- firstName: String&lt;/p&gt;&lt;p style=&quot;margin: 0px ; margin-left: 4px&quot;&gt;- lastName: String&lt;/p&gt;&lt;p style=&quot;margin: 0px ; margin-left: 4px&quot;&gt;&lt;u&gt;- authorIDCounter&lt;/u&gt;&lt;/p&gt;&lt;hr size=&quot;1&quot;&gt;&lt;p style=&quot;margin: 0px ; margin-left: 4px&quot;&gt;+ increaseCounter(): void&lt;/p&gt;" style="verticalAlign=top;align=left;overflow=fill;fontSize=12;fontFamily=Helvetica;html=1;" vertex="1" parent="1"><mxGeometry x="560" y="120" width="160" height="150" as="geometry"/></mxCell><mxCell id="39" value="&lt;p style=&quot;margin: 0px ; margin-top: 4px ; text-align: center&quot;&gt;&lt;b&gt;BookDao&lt;/b&gt;&lt;/p&gt;&lt;hr size=&quot;1&quot;&gt;&lt;p style=&quot;margin: 0px ; margin-left: 4px&quot;&gt;&lt;u&gt;- bookList: List&amp;lt;Book&amp;gt;&lt;/u&gt;&lt;/p&gt;&lt;hr size=&quot;1&quot;&gt;&lt;p style=&quot;margin: 0px ; margin-left: 4px&quot;&gt;+ importData(): List&amp;lt;Object&amp;gt;&lt;/p&gt;&lt;p style=&quot;margin: 0px ; margin-left: 4px&quot;&gt;+ exportData(List&amp;lt;String[]&amp;gt;): void&lt;/p&gt;&lt;p style=&quot;margin: 0px ; margin-left: 4px&quot;&gt;+ getMaxID(): int&lt;/p&gt;&lt;p style=&quot;margin: 0px ; margin-left: 4px&quot;&gt;+ addNew(Book): void&lt;/p&gt;&lt;p style=&quot;margin: 0px ; margin-left: 4px&quot;&gt;+ getAuthor (Book): Author&lt;/p&gt;&lt;p style=&quot;margin: 0px ; margin-left: 4px&quot;&gt;+ deleteBooks (int): void&lt;/p&gt;&lt;p style=&quot;margin: 0px ; margin-left: 4px&quot;&gt;+ deleteBook (Book): void&lt;/p&gt;&lt;p style=&quot;margin: 0px ; margin-left: 4px&quot;&gt;+ getFilteredList (String): List&amp;lt;Book&amp;gt;&lt;/p&gt;&lt;p style=&quot;margin: 0px ; margin-left: 4px&quot;&gt;&lt;br&gt;&lt;/p&gt;&lt;p style=&quot;margin: 0px ; margin-left: 4px&quot;&gt;&lt;br&gt;&lt;/p&gt;" style="verticalAlign=top;align=left;overflow=fill;fontSize=12;fontFamily=Helvetica;html=1;" vertex="1" parent="1"><mxGeometry y="320" width="230" height="190" as="geometry"/></mxCell><mxCell id="44" value="&lt;p style=&quot;margin: 0px ; margin-top: 4px ; text-align: center&quot;&gt;&lt;b&gt;AuthorDao&lt;/b&gt;&lt;/p&gt;&lt;hr size=&quot;1&quot;&gt;&lt;p style=&quot;margin: 0px ; margin-left: 4px&quot;&gt;&lt;u&gt;- authorList: List &amp;lt;Author&amp;gt;&lt;/u&gt;&lt;/p&gt;&lt;hr size=&quot;1&quot;&gt;&lt;p style=&quot;margin: 0px ; margin-left: 4px&quot;&gt;+ importData(): List&amp;lt;Object&amp;gt;&lt;/p&gt;&lt;p style=&quot;margin: 0px ; margin-left: 4px&quot;&gt;+ exportData(List&amp;lt;String[]&amp;gt;): void&lt;/p&gt;&lt;p style=&quot;margin: 0px ; margin-left: 4px&quot;&gt;+ searchFor(String): List&amp;lt;Author&amp;gt;&lt;/p&gt;&lt;p style=&quot;margin: 0px ; margin-left: 4px&quot;&gt;+ getMaxID(): int&lt;/p&gt;&lt;p style=&quot;margin: 0px ; margin-left: 4px&quot;&gt;+ setAuthorCounterToMax():void&lt;/p&gt;&lt;p style=&quot;margin: 0px ; margin-left: 4px&quot;&gt;+ setAuthorIDToExisting(Author): void&lt;/p&gt;&lt;p style=&quot;margin: 0px ; margin-left: 4px&quot;&gt;+ getAuthorByID (int): Author&lt;/p&gt;&lt;p style=&quot;margin: 0px ; margin-left: 4px&quot;&gt;+ addNew(Author): void&lt;/p&gt;&lt;p style=&quot;margin: 0px ; margin-left: 4px&quot;&gt;+ getBooks (Author): List&amp;lt;Book&amp;gt;&lt;/p&gt;&lt;p style=&quot;margin: 0px ; margin-left: 4px&quot;&gt;+ delete (int): void&lt;/p&gt;&lt;p style=&quot;margin: 0px ; margin-left: 4px&quot;&gt;+ delete (Author): void&lt;/p&gt;&lt;p style=&quot;margin: 0px ; margin-left: 4px&quot;&gt;+change (int): void&lt;/p&gt;&lt;p style=&quot;margin: 0px ; margin-left: 4px&quot;&gt;&lt;br&gt;&lt;/p&gt;&lt;p style=&quot;margin: 0px ; margin-left: 4px&quot;&gt;&lt;br&gt;&lt;/p&gt;&lt;p style=&quot;margin: 0px ; margin-left: 4px&quot;&gt;&lt;br&gt;&lt;/p&gt;&lt;p style=&quot;margin: 0px ; margin-left: 4px&quot;&gt;&lt;br&gt;&lt;/p&gt;" style="verticalAlign=top;align=left;overflow=fill;fontSize=12;fontFamily=Helvetica;html=1;" vertex="1" parent="1"><mxGeometry x="630" y="315" width="200" height="230" as="geometry"/></mxCell><mxCell id="45" value="&lt;p style=&quot;margin: 0px ; margin-top: 4px ; text-align: center&quot;&gt;&lt;b&gt;FileManager&lt;/b&gt;&lt;/p&gt;&lt;hr size=&quot;1&quot;&gt;&lt;p style=&quot;margin: 0px ; margin-left: 4px&quot;&gt;&lt;span&gt;+ getFile(String): File&lt;/span&gt;&lt;br&gt;&lt;/p&gt;&lt;p style=&quot;margin: 0px ; margin-left: 4px&quot;&gt;&lt;span&gt;+ writeToCSV(List&amp;lt;String[]&amp;gt;) : void&lt;/span&gt;&lt;/p&gt;&lt;p style=&quot;margin: 0px ; margin-left: 4px&quot;&gt;&lt;span&gt;+ readFromCSV(): List&amp;lt;Object&amp;gt;&lt;/span&gt;&lt;/p&gt;" style="verticalAlign=top;align=left;overflow=fill;fontSize=12;fontFamily=Helvetica;html=1;" vertex="1" parent="1"><mxGeometry x="310" y="315" width="200" height="100" as="geometry"/></mxCell><mxCell id="47" value="" style="endArrow=open;endFill=1;endSize=12;html=1;" edge="1" parent="1" target="36"><mxGeometry width="160" relative="1" as="geometry"><mxPoint x="118" y="320" as="sourcePoint"/><mxPoint x="120" y="220" as="targetPoint"/></mxGeometry></mxCell><mxCell id="48" value="uses" style="edgeLabel;html=1;align=center;verticalAlign=middle;resizable=0;points=[];" vertex="1" connectable="0" parent="47"><mxGeometry x="0.7959" y="-5" relative="1" as="geometry"><mxPoint x="15" y="39" as="offset"/></mxGeometry></mxCell><mxCell id="66" style="edgeStyle=orthogonalEdgeStyle;rounded=0;orthogonalLoop=1;jettySize=auto;html=1;exitX=0.5;exitY=1;exitDx=0;exitDy=0;" edge="1" parent="1" source="37" target="37"><mxGeometry relative="1" as="geometry"/></mxCell><mxCell id="71" value="" style="endArrow=open;endFill=1;endSize=12;html=1;exitX=0.75;exitY=0;exitDx=0;exitDy=0;edgeStyle=elbowEdgeStyle;" edge="1" parent="1" source="44" target="36"><mxGeometry width="160" relative="1" as="geometry"><mxPoint x="450" y="210" as="sourcePoint"/><mxPoint x="780" y="20" as="targetPoint"/><Array as="points"><mxPoint x="780" y="90"/><mxPoint x="780" y="120"/></Array></mxGeometry></mxCell><mxCell id="72" value="" style="endArrow=open;endFill=1;endSize=12;html=1;entryX=0.661;entryY=1.004;entryDx=0;entryDy=0;entryPerimeter=0;" edge="1" parent="1" target="37"><mxGeometry width="160" relative="1" as="geometry"><mxPoint x="666" y="315" as="sourcePoint"/><mxPoint x="630" y="310" as="targetPoint"/></mxGeometry></mxCell><mxCell id="73" value="uses" style="edgeLabel;html=1;align=center;verticalAlign=middle;resizable=0;points=[];" vertex="1" connectable="0" parent="1"><mxGeometry x="690.0014285714285" y="79.99857142857138" as="geometry"/></mxCell><mxCell id="74" value="" style="endArrow=open;endFill=1;endSize=12;html=1;exitX=0.75;exitY=0;exitDx=0;exitDy=0;entryX=-0.011;entryY=0.924;entryDx=0;entryDy=0;entryPerimeter=0;" edge="1" parent="1" source="39" target="37"><mxGeometry width="160" relative="1" as="geometry"><mxPoint x="180" y="310" as="sourcePoint"/><mxPoint x="173" y="240" as="targetPoint"/><Array as="points"><mxPoint x="173" y="260"/></Array></mxGeometry></mxCell><mxCell id="75" value="uses" style="edgeLabel;html=1;align=center;verticalAlign=middle;resizable=0;points=[];" vertex="1" connectable="0" parent="1"><mxGeometry x="400.0014285714285" y="249.99857142857138" as="geometry"/></mxCell><mxCell id="76" value="" style="endArrow=open;endFill=1;endSize=12;html=1;exitX=0;exitY=0.25;exitDx=0;exitDy=0;entryX=1.019;entryY=0.564;entryDx=0;entryDy=0;entryPerimeter=0;" edge="1" parent="1" source="44" target="45"><mxGeometry width="160" relative="1" as="geometry"><mxPoint x="410" y="330" as="sourcePoint"/><mxPoint x="570" y="330" as="targetPoint"/></mxGeometry></mxCell><mxCell id="77" value="uses" style="edgeLabel;html=1;align=center;verticalAlign=middle;resizable=0;points=[];" vertex="1" connectable="0" parent="1"><mxGeometry x="650.0014285714285" y="299.9985714285714" as="geometry"/></mxCell><mxCell id="78" value="uses" style="edgeLabel;html=1;align=center;verticalAlign=middle;resizable=0;points=[];" vertex="1" connectable="0" parent="1"><mxGeometry x="580.0014285714285" y="359.9985714285714" as="geometry"/></mxCell><mxCell id="79" value="" style="endArrow=open;endFill=1;endSize=12;html=1;entryX=-0.014;entryY=0.595;entryDx=0;entryDy=0;entryPerimeter=0;exitX=1.001;exitY=0.292;exitDx=0;exitDy=0;exitPerimeter=0;" edge="1" parent="1" source="39" target="45"><mxGeometry width="160" relative="1" as="geometry"><mxPoint x="230" y="330" as="sourcePoint"/><mxPoint x="390" y="330" as="targetPoint"/></mxGeometry></mxCell><mxCell id="80" value="uses" style="edgeLabel;html=1;align=center;verticalAlign=middle;resizable=0;points=[];" vertex="1" connectable="0" parent="1"><mxGeometry x="100.0014285714285" y="589.9985714285714" as="geometry"/></mxCell><mxCell id="81" value="Application Layer" style="verticalAlign=top;align=left;spacingTop=8;spacingLeft=2;spacingRight=12;shape=cube;size=10;direction=south;fontStyle=4;html=1;" vertex="1" parent="1"><mxGeometry x="70" y="680" width="130" height="100" as="geometry"/></mxCell><mxCell id="86" value="" style="endArrow=open;endFill=1;endSize=12;html=1;exitX=0.15;exitY=1.022;exitDx=0;exitDy=0;exitPerimeter=0;entryX=0.786;entryY=0.009;entryDx=0;entryDy=0;entryPerimeter=0;" edge="1" parent="1" source="44" target="81"><mxGeometry width="160" relative="1" as="geometry"><mxPoint x="310" y="680" as="sourcePoint"/><mxPoint x="220" y="760" as="targetPoint"/><Array as="points"><mxPoint x="660" y="760"/></Array></mxGeometry></mxCell><mxCell id="87" value="" style="endArrow=open;endFill=1;endSize=12;html=1;entryX=0.204;entryY=-0.011;entryDx=0;entryDy=0;entryPerimeter=0;" edge="1" parent="1" target="81"><mxGeometry width="160" relative="1" as="geometry"><mxPoint x="323" y="420" as="sourcePoint"/><mxPoint x="250" y="680" as="targetPoint"/><Array as="points"><mxPoint x="323" y="700"/></Array></mxGeometry></mxCell><mxCell id="88" value="" style="endArrow=open;endFill=1;endSize=12;html=1;exitX=0.5;exitY=1;exitDx=0;exitDy=0;" edge="1" parent="1" source="39"><mxGeometry width="160" relative="1" as="geometry"><mxPoint x="310" y="680" as="sourcePoint"/><mxPoint x="114" y="682" as="targetPoint"/></mxGeometry></mxCell><mxCell id="89" value="uses" style="edgeLabel;html=1;align=center;verticalAlign=middle;resizable=0;points=[];" vertex="1" connectable="0" parent="1"><mxGeometry x="270.0014285714285" y="379.9985714285714" as="geometry"><mxPoint x="-5" y="-17" as="offset"/></mxGeometry></mxCell><mxCell id="90" value="uses" style="edgeLabel;html=1;align=center;verticalAlign=middle;resizable=0;points=[];" vertex="1" connectable="0" parent="1"><mxGeometry x="260.0014285714285" y="709.9985714285714" as="geometry"/></mxCell><mxCell id="91" value="uses" style="edgeLabel;html=1;align=center;verticalAlign=middle;resizable=0;points=[];" vertex="1" connectable="0" parent="1"><mxGeometry x="425.0014285714285" y="749.9985714285714" as="geometry"/></mxCell></root></mxGraphModel></diagram></mxfile>